<svg xmlns="http://www.w3.org/2000/svg" viewBox="0 0 1440 1440"><g transform="matrix(1.333333 0 0 -1.333333 0 1440)"><path d="M0 0h1080v1080H0z" fill="#2a2e39"/><path fill="#e99f3c" d="M937.228 740.279H478.539v2.73h458.689zm-749.921-411.09h479.685v-2.73H187.307zm561.476 7.738v14.477c0 28.981 8.676 44.695 24.3 48.868v56.509c-53.94-4.181-87.887-44.947-87.887-101.091v-18.763zm24.301-81.548c-15.625 4.173-24.3 19.887-24.3 48.868v14.478h-63.587v-18.764c0-56.144 33.947-96.91 87.887-101.091z M783.548 873.237h-2.73V477.551h2.73zm-2.73-749.209h2.73v46.179h-2.73zm17.911 205.162v-2.73h-15.181v-26.43h-2.73v26.43h-15.18v2.73h15.18v25.601h2.73V329.19zM332.254 956.06h-2.73V804.946h2.73zm-2.73-731.719h2.73v412.915h-2.73zm192.737 433.582h-49.386V399.289h49.386zm97.666-159.614c24.386 13.302 42.491 38.057 42.491 73.895 0 56.9-45.815 85.72-89.044 85.72h-33.821v-57.638h28.648c16.255 0 28.448-10.715 28.448-28.082s-12.193-28.08-28.448-28.08h-28.648v-57.637h17.564l43.597-87.198h73.526zm-430.976 244.7h-46.179v-2.73h46.179zm83.93-2.842V612.33h-63.918v258.632h52.834l69.091-127.468 69.091 127.468h52.836V612.33h-63.92v127.837l-36.208-66.503h-43.598zm542.19-447.35v.008c-2.066-21.736-10.355-33.859-23.786-37.446V198.87c51.621 4.001 84.908 41.52 87.677 93.947zm0 70.017h63.892c-2.77 52.427-36.057 89.946-87.678 93.947v-56.509c13.431-3.587 21.72-15.71 23.786-37.446z"/></g></svg>