<svg xmlns="http://www.w3.org/2000/svg" viewBox="0 0 1440 1440"><path fill="#e99f3c" d="M393.432 1161.873c-8.515 0-15.922-4.548-18.198-14.623l10.983-1.17c1.106 3.965 3.771 5.916 7.085 5.916 3.12 0 5.199-1.559 5.199-4.159 0-2.406-1.495-3.641-4.939-4.42l-3.574-.781c-8.775-1.885-13.52-6.239-13.52-13.842 0-7.475 5.526-13.974 15.794-13.974 8.643 0 15.078 5.003 16.639 13.712l-10.791 1.17c-.779-3.314-2.729-5.003-5.588-5.003-2.925 0-4.484 1.689-4.484 3.898s2.015 3.705 5.588 4.486l3.64.779c8.318 1.755 12.804 5.981 12.804 13.714 0 8.709-6.565 14.297-16.637 14.297m23.129-46.272h30.481v10.138h-18.911v6.954h16.246v10.138h-16.246v8.124h18.911v10.138h-30.481zm54.067 20.017c2.859 0 5.005-1.885 5.005-4.939s-2.146-4.938-5.005-4.938h-5.199v9.877zm-1.949 10.138h-3.25v15.339h-11.568v-45.493h17.677c7.605 0 15.663 5.067 15.663 15.076 0 6.305-3.184 10.659-7.473 12.999l9.552 17.418h-12.932zm49.517-30.156h12.089l-14.103 45.493h-12.153l-14.103-45.493h12.023l8.126 29.05zm28.853 45.493h-11.57V1115.6h11.57zm19.365-18.458c0 6.239 2.208 9.1 6.109 9.1 3.314 0 5.524-2.406 6.175-7.02l11.436 1.234c-1.3 10.009-7.799 15.922-17.612 15.922-10.789 0-17.679-7.667-17.679-18.456v-10.138c0-10.789 6.89-18.458 17.679-18.458 9.813 0 16.312 5.916 17.612 15.922l-11.436 1.236c-.651-4.614-2.861-7.02-6.175-7.02-3.901 0-6.109 2.859-6.109 9.1zm42.433 18.458h-11.57V1115.6h11.57zm31.582-18.458v-8.577c0-6.241-2.208-9.1-6.108-9.1s-6.111 2.859-6.111 9.1v8.577c0 6.239 2.21 9.1 6.111 9.1s6.108-2.861 6.108-9.1m11.57-9.358v10.138c0 10.789-6.89 18.456-17.677 18.456s-17.679-7.667-17.679-18.456v-10.138c0-10.789 6.888-18.458 17.679-18.458s17.677 7.669 17.677 18.458m23.392 28.595c-8.515 0-15.922-4.548-18.198-14.623l10.983-1.17c1.106 3.965 3.771 5.916 7.085 5.916 3.12 0 5.199-1.559 5.199-4.159 0-2.406-1.495-3.641-4.939-4.42l-3.574-.781c-8.775-1.885-13.52-6.239-13.52-13.842 0-7.475 5.526-13.974 15.794-13.974 8.643 0 15.078 5.003 16.639 13.712l-10.791 1.17c-.779-3.314-2.729-5.003-5.588-5.003-2.925 0-4.484 1.689-4.484 3.898s2.015 3.705 5.588 4.486l3.64.779c8.318 1.755 12.804 5.981 12.804 13.714 0 8.709-6.565 14.297-16.637 14.297m732.093-788.42H613.629v-4.725h793.854zM109.593 1084.927h830.192v4.725H109.593zm971.748-13.392v-25.055c0-50.158 15.016-77.354 42.056-84.576v-97.8c-93.354 7.236-152.106 77.79-152.106 174.958v32.473zm42.058 141.135c-27.042-7.222-42.056-34.418-42.056-84.576v-25.057h-110.05v32.475c0 97.169 58.752 167.722 152.106 174.958zm18.11-1069.329h-4.725v684.815h4.725zM1136.785 1440h4.725v-79.922h-4.725zm30.999-355.074v4.725h-26.274v45.742h-4.725v-45.742h-26.272v-4.725h26.272v-44.308h4.725v44.308zM360.454 0h-4.725v261.533h4.725zm-4.725 1266.388h4.725V551.755h-4.725zm333.571-750.402h-85.472v447.619h85.472zM858.33 792.231c42.205-23.022 73.539-65.865 73.539-127.89 0-98.477-79.292-148.356-154.109-148.356h-58.534v99.754h49.581c28.133 0 49.235 18.544 49.235 48.602s-21.102 48.598-49.235 48.598h-49.581v99.753h30.398l75.453 150.914H952.33zM112.439 368.728H32.516v4.725h79.922zm145.258 4.919v221.248H147.073V147.279h91.44l119.576 220.609 119.576-220.609h91.443v447.615H458.482V373.646l-62.665 115.097h-75.455zm938.37 774.23v-.014c-3.576 37.619-17.921 58.6-41.167 64.808v97.8c89.341-6.925 146.951-71.859 151.743-162.594zm0-121.179h110.578c-4.794-90.736-62.404-155.67-151.745-162.594v97.8c23.245 6.208 37.591 27.189 41.167 64.808z"/></svg>