<svg xmlns="http://www.w3.org/2000/svg" viewBox="0 0 1440 1440"><g transform="matrix(1.333333 0 0 -1.333333 0 1440)"><path d="M0 0h1080v1080H0z" fill="#2a2e39"/><path fill="#e99f3c" d="M351.309 284.73c-4.92 0-9.2 2.628-10.515 8.449l6.346.676c.639-2.291 2.179-3.418 4.094-3.418 1.803 0 3.004.901 3.004 2.403 0 1.39-.864 2.104-2.854 2.554l-2.065.451c-5.07 1.089-7.812 3.605-7.812 7.998 0 4.319 3.193 8.074 9.126 8.074 4.994 0 8.712-2.891 9.614-7.923l-6.235-.676c-.45 1.915-1.577 2.891-3.229 2.891-1.69 0-2.591-.976-2.591-2.252s1.164-2.141 3.229-2.592l2.103-.45c4.806-1.014 7.398-3.456 7.398-7.924 0-5.032-3.793-8.261-9.613-8.261 M364.673 311.466h17.612v-5.858h-10.927v-4.018h9.387v-5.858h-9.387v-4.694h10.927v-5.858h-17.612zm31.24-11.566c1.652 0 2.892 1.089 2.892 2.854s-1.24 2.853-2.892 2.853h-3.004V299.9zm-1.126-5.858h-1.878v-8.863h-6.684v26.286h10.214c4.394 0 9.05-2.928 9.05-8.711 0-3.643-1.84-6.159-4.318-7.511l5.519-10.064h-7.472zm28.611 17.424h6.985l-8.149-26.286h-7.022l-8.149 26.286h6.947l4.695-16.785zm16.671-26.286h-6.685v26.286h6.685zm11.189 10.665c0-3.605 1.276-5.258 3.53-5.258 1.915 0 3.192 1.39 3.568 4.056l6.608-.713c-.751-5.783-4.506-9.2-10.176-9.2-6.234 0-10.215 4.43-10.215 10.664v5.858c0 6.234 3.981 10.665 10.215 10.665 5.67 0 9.425-3.418 10.176-9.2l-6.608-.714c-.376 2.666-1.653 4.056-3.568 4.056-2.254 0-3.53-1.652-3.53-5.258zm24.518-10.665h-6.685v26.286h6.685zm18.248 10.665v4.956c0 3.606-1.276 5.258-3.529 5.258s-3.531-1.652-3.531-5.258v-4.956c0-3.605 1.277-5.258 3.531-5.258s3.529 1.653 3.529 5.258m6.685 5.407v-5.858c0-6.234-3.981-10.664-10.214-10.664s-10.215 4.43-10.215 10.664v5.858c0 6.234 3.98 10.665 10.215 10.665s10.214-4.431 10.214-10.665m13.516-16.522c-4.92 0-9.2 2.628-10.515 8.449l6.346.676c.639-2.291 2.179-3.418 4.094-3.418 1.803 0 3.004.901 3.004 2.403 0 1.39-.864 2.104-2.854 2.554l-2.065.451c-5.07 1.089-7.812 3.605-7.812 7.998 0 4.319 3.193 8.074 9.126 8.074 4.994 0 8.712-2.891 9.614-7.923l-6.235-.676c-.45 1.915-1.577 2.891-3.229 2.891-1.69 0-2.591-.976-2.591-2.252s1.164-2.141 3.229-2.592l2.103-.45c4.806-1.014 7.398-3.456 7.398-7.924 0-5.032-3.793-8.261-9.613-8.261m423.003 455.549H478.539v2.73h458.689z M187.307 329.189h479.685v-2.73H187.307zm561.476 7.738v14.477c0 28.981 8.676 44.695 24.3 48.868v56.509c-53.94-4.181-87.887-44.947-87.887-101.091v-18.763zm24.301-81.548c-15.625 4.173-24.3 19.887-24.3 48.868v14.478h-63.587v-18.764c0-56.144 33.947-96.91 87.887-101.091zm10.464 617.858h-2.73V477.551h2.73zm-2.73-749.209h2.73v46.179h-2.73zm17.911 205.162v-2.73h-15.181v-26.43h-2.73v26.43h-15.18v2.73h15.18v25.601h2.73V329.19zM332.254 956.06h-2.73V804.946h2.73z M329.524 224.341h2.73v412.915h-2.73zm192.737 433.582h-49.386V399.289h49.386zm97.666-159.614c24.386 13.302 42.491 38.057 42.491 73.895 0 56.9-45.815 85.72-89.044 85.72h-33.821v-57.638h28.648c16.255 0 28.448-10.715 28.448-28.082s-12.193-28.08-28.448-28.08h-28.648v-57.637h17.564l43.597-87.198h73.526zm-430.976 244.7h-46.179v-2.73h46.179zm83.93-2.842V612.33h-63.918v258.632h52.834l69.091-127.468 69.091 127.468h52.836V612.33h-63.92v127.837l-36.208-66.503h-43.598zm542.19-447.35v.008c-2.066-21.736-10.355-33.859-23.786-37.446V198.87c51.621 4.001 84.908 41.52 87.677 93.947zm0 70.017h63.892c-2.77 52.427-36.057 89.946-87.678 93.947v-56.509c13.431-3.587 21.72-15.71 23.786-37.446z"/></g></svg>